<svg data-v-89331616="" width="18" height="18" viewBox="0 0 16 16" fill="none" xmlns="http://www.w3.org/2000/svg" class="delete-icon"><path d="M11 1.66699L14.3333 5.00033M14.3333 1.66699L11 5.00033M8.33333 2.00033H5.2C4.0799 2.00033 3.51984 2.00033 3.09202 2.21831C2.71569 2.41006 2.40973 2.71602 2.21799 3.09234C2 3.52017 2 4.08022 2 5.20033V10.8003C2 11.9204 2 12.4805 2.21799 12.9083C2.40973 13.2846 2.71569 13.5906 3.09202 13.7823C3.51984 14.0003 4.07989 14.0003 5.2 14.0003H11.3333C11.9533 14.0003 12.2633 14.0003 12.5176 13.9322C13.2078 13.7472 13.7469 13.2081 13.9319 12.518C14 12.2636 14 11.9536 14 11.3337M7 5.66699C7 6.40337 6.40305 7.00033 5.66667 7.00033C4.93029 7.00033 4.33333 6.40337 4.33333 5.66699C4.33333 4.93061 4.93029 4.33366 5.66667 4.33366C6.40305 4.33366 7 4.93061 7 5.66699ZM9.99336 7.94576L4.3541 13.0724C4.03691 13.3607 3.87831 13.5049 3.86429 13.6298C3.85213 13.738 3.89364 13.8454 3.97546 13.9173C4.06985 14.0003 4.28419 14.0003 4.71286 14.0003H10.9707C11.9301 14.0003 12.4098 14.0003 12.7866 13.8391C13.2596 13.6368 13.6365 13.26 13.8388 12.7869C14 12.4101 14 11.9304 14 10.971C14 10.6482 14 10.4867 13.9647 10.3364C13.9204 10.1475 13.8353 9.97056 13.7155 9.81792C13.6202 9.69646 13.4941 9.59563 13.242 9.39396L11.3772 7.9021C11.1249 7.70027 10.9988 7.59935 10.8599 7.56373C10.7374 7.53234 10.6086 7.53641 10.4884 7.57545C10.352 7.61975 10.2324 7.72842 9.99336 7.94576Z" stroke="#475467" stroke-width="1.33333" stroke-linecap="round" stroke-linejoin="round"></path></svg>